Coordinates
version=1
nRows=17
nColumns=40
inDegrees=yes

Units are S.I. units (second, meters, Newtons, ...)
Angles are in degrees.

endheader
time	pelvis_tilt	pelvis_list	pelvis_rotation	pelvis_tx	pelvis_ty	pelvis_tz	hip_flexion_r	hip_adduction_r	hip_rotation_r	knee_angle_r	knee_angle_r_beta	ankle_angle_r	subtalar_angle_r	mtp_angle_r	hip_flexion_l	hip_adduction_l	hip_rotation_l	knee_angle_l	knee_angle_l_beta	ankle_angle_l	subtalar_angle_l	mtp_angle_l	lumbar_extension	lumbar_bending	lumbar_rotation	arm_flex_r	arm_add_r	arm_rot_r	elbow_flex_r	pro_sup_r	wrist_flex_r	wrist_dev_r	arm_flex_l	arm_add_l	arm_rot_l	elbow_flex_l	pro_sup_l	wrist_flex_l	wrist_dev_l
      0.00000000	     -4.36832843	     -0.36469056	     -1.39901640	     -0.96336968	      0.94637735	      1.40839952	     26.77917442	    -11.55171159	    -20.79071327	    -28.31133316	     -0.49412598	      1.20275230	     -8.63385122	     12.43414330	     -0.76402833	     -5.09145797	      6.76648703	     -8.87857077	     -0.15496029	      5.74317875	     -0.71514380	    -12.74603318	     -3.76343952	     -0.73421473	     -5.48496563	     -0.35176106	    -12.14557823	    -19.11676044	     26.94159907	     89.95437384	      0.00000000	      0.00000000	      9.60853613	     12.00925518	     -1.95571238	     34.96816586	     89.95437384	      0.00000000	      0.00000000
      0.01000000	     -4.02840686	     -0.50163557	     -0.80723301	     -0.95450458	      0.94587075	      1.40893869	     26.59239079	    -11.30809859	    -20.86706321	    -25.99512876	     -0.45370059	      1.18459336	     -7.78865266	     12.46792045	     -1.89570779	     -4.88733219	      6.46231680	     -8.59642037	     -0.15003584	      6.01892701	     -0.97714893	    -12.94510754	     -4.13518060	     -0.52336096	     -5.72212446	     -0.44659225	    -12.19434740	    -19.46437750	     26.37320977	     89.95437384	      0.00000000	      0.00000000	     10.17208740	     11.96440662	     -2.42359254	     35.30646498	     89.95437384	      0.00000000	      0.00000000
      0.02000000	     -3.94471695	     -0.50670543	     -0.30996058	     -0.94607477	      0.94478191	      1.40970485	     26.80641037	    -11.20040373	    -20.88034779	    -23.85096572	     -0.41627788	      1.21199225	     -6.75194563	     12.35282082	     -2.57331116	     -4.79639979	      6.24951160	     -8.58026534	     -0.14975388	      6.33806616	     -1.19251604	    -13.09967859	     -4.27460813	     -0.47423930	     -5.89873541	     -0.59506269	    -12.19934866	    -19.75249477	     25.94561143	     89.95437384	      0.00000000	      0.00000000	     10.59729276	     11.98804384	     -2.76072480	     35.74579562	     89.95437384	      0.00000000	      0.00000000
      0.03000000	     -4.06462841	     -0.25776677	      0.12223165	     -0.93723498	      0.94322095	      1.41053932	     27.40573116	    -11.38680392	    -20.97158946	    -22.13238369	     -0.38628297	      1.41179336	     -6.20414423	     12.29034860	     -3.06328454	     -4.97729869	      6.16559441	     -8.56369730	     -0.14946471	      6.59992717	     -1.40656094	    -13.16851919	     -4.09666459	     -0.70757687	     -6.03203027	     -0.85889579	    -12.18967212	    -19.84325783	     25.52451357	     89.95437384	      0.00000000	      0.00000000	     11.00849633	     11.92735806	     -2.88765453	     36.00548837	     89.95437384	      0.00000000	      0.00000000
      0.04000000	     -3.54999322	     -0.80240641	      0.86619659	     -0.92831805	      0.94293502	      1.41135855	     26.64664731	    -10.72273450	    -21.52669819	    -19.47373974	     -0.33988088	      1.25177766	     -4.40290564	     12.04997468	     -4.17052053	     -4.19335817	      5.77512414	     -8.65343594	     -0.15103095	      6.99259628	     -1.83372254	    -13.50570720	     -4.73282646	     -0.03787673	     -6.38291791	     -0.86239258	    -12.14976491	    -20.73262779	     24.96769502	     89.95437384	      0.00000000	      0.00000000	     11.52119814	     11.84970033	     -3.21334608	     36.22480136	     89.95437384	      0.00000000	      0.00000000
      0.05000000	     -3.41116802	     -0.89716971	      1.35426041	     -0.91934429	      0.94172287	      1.41240050	     26.72959885	    -10.58935929	    -22.10365619	    -17.63073758	     -0.30771442	      1.23311650	     -2.77869508	     11.41679684	     -4.87398005	     -3.93016208	      5.63566629	     -8.78896945	     -0.15339645	      7.27137834	     -2.24340053	    -13.86832947	     -4.87486685	      0.11545586	     -6.53861213	     -1.04208762	    -12.12264780	    -21.16057803	     24.52402033	     89.95437384	      0.00000000	      0.00000000	     11.80494105	     11.83351045	     -3.47349939	     36.58028853	     89.95437384	      0.00000000	      0.00000000
      0.06000000	     -3.36335189	     -1.03108751	      1.85993112	     -0.91027709	      0.94038057	      1.41347043	     26.89397445	    -10.41018598	    -22.90677538	    -15.88263130	     -0.27720421	      1.08079466	     -1.12020606	     10.84967736	     -5.44621432	     -3.59518694	      5.64347574	     -8.94332940	     -0.15609054	      7.67395679	     -2.61843130	    -14.21354101	     -4.90998812	      0.32250440	     -6.72758629	     -1.16042826	    -12.09817476	    -21.67355070	     23.96374858	     89.95437384	      0.00000000	      0.00000000	     12.07368037	     11.76017033	     -3.56759290	     36.84771258	     89.95437384	      0.00000000	      0.00000000
      0.07000000	     -3.58653644	     -0.87504915	      2.22548531	     -0.90148340	      0.93853034	      1.41460204	     27.49594123	    -10.43154274	    -22.93400853	    -14.40009741	     -0.25132911	      0.89582413	      0.06071925	     10.69252150	     -5.74648570	     -3.63531777	      5.45787493	     -9.08967101	     -0.15864469	      7.81009691	     -2.85719873	    -14.33256014	     -4.65156977	      0.20036448	     -6.88123740	     -1.37652080	    -12.09296951	    -21.79178912	     23.60342539	     89.95437384	      0.00000000	      0.00000000	     12.22084166	     11.76907836	     -3.64210843	     37.07493199	     89.95437384	      0.00000000	      0.00000000
      0.08000000	     -3.33682147	     -1.11457807	      2.78469911	     -0.89175216	      0.93741678	      1.41583175	     27.40636464	    -10.27014233	    -24.62377954	    -13.12214079	     -0.22902456	      0.80005701	      2.90022120	      9.54526778	     -6.54265374	     -3.09040187	      5.74386825	     -9.30536120	     -0.16240919	      8.06266917	     -3.71217638	    -15.05178481	     -4.86015929	      0.52824113	     -7.10855438	     -1.44964697	    -11.98454091	    -22.76997235	     22.98055705	     89.95437384	      0.00000000	      0.00000000	     12.35953680	     11.66178580	     -3.58292985	     37.28488991	     89.95437384	      0.00000000	      0.00000000
      0.09000000	     -3.50793018	     -0.95553123	      3.03052804	     -0.88231973	      0.93553039	      1.41730476	     28.07311084	    -10.27921139	    -24.76061578	    -12.39676913	     -0.21636444	      0.61603470	      3.33374094	      9.46317307	     -6.97760469	     -3.09912641	      5.84437873	     -9.34877711	     -0.16316694	      8.29710364	     -3.76649890	    -15.08965487	     -4.62105646	      0.38688820	     -7.15595900	     -1.72903541	    -12.00055237	    -22.80727407	     22.65278295	     89.95437384	      0.00000000	      0.00000000	     12.40909413	     11.63407905	     -3.56075118	     37.37923621	     89.95437384	      0.00000000	      0.00000000
      0.10000000	     -3.34178774	     -1.18176579	      3.54404326	     -0.87248690	      0.93428732	      1.41866273	     27.99209697	    -10.03587024	    -25.92209178	    -11.39049701	     -0.19880168	      0.07743124	      5.85496832	      8.40400478	     -7.65620692	     -2.52630432	      6.07039385	     -9.63390367	     -0.16814334	      8.32217916	     -4.71430244	    -15.75102490	     -4.72951072	      0.70763391	     -7.40862093	     -1.79856012	    -11.91556153	    -23.78437065	     22.10421906	     89.95437384	      0.00000000	      0.00000000	     12.42488341	     11.52604956	     -3.34666631	     37.49950360	     89.95437384	      0.00000000	      0.00000000
      0.11000000	     -3.48074280	     -1.05979650	      3.77656133	     -0.86274837	      0.93240257	      1.42023820	     28.56039202	     -9.99234848	    -25.89681549	    -11.14949195	     -0.19459534	      0.09785116	      5.94656555	      8.27582673	     -8.12345013	     -2.45523047	      6.06306058	     -9.71107568	     -0.16949024	      8.53147409	     -4.80838524	    -15.73274901	     -4.50222089	      0.61070189	     -7.41667806	     -2.12616934	    -11.94002650	    -23.80960777	     21.82266613	     89.95437384	      0.00000000	      0.00000000	     12.34632206	     11.50787230	     -3.31984813	     37.56565193	     89.95437384	      0.00000000	      0.00000000
      0.12000000	     -3.54830293	     -0.95092984	      3.99245326	     -0.85301855	      0.93068014	      1.42210748	     29.14058019	     -9.95856418	    -25.56485653	    -11.41410265	     -0.19921367	      0.03391255	      5.82829239	      8.12205877	     -8.48268458	     -2.30606363	      5.97840055	    -10.20806969	     -0.17816443	      8.42211228	     -4.72332332	    -15.48821067	     -4.39134092	      0.50156290	     -7.44166284	     -2.54030216	    -11.91604476	    -23.76167278	     21.84865698	     89.95437384	      0.00000000	      0.00000000	     12.22010394	     11.53479186	     -3.24113478	     37.72560819	     89.95437384	      0.00000000	      0.00000000
      0.13000000	     -3.24900518	     -1.34197790	      4.41727437	     -0.84196694	      0.92954085	      1.42398300	     28.92838197	     -9.49713737	    -26.42050963	    -11.49634727	     -0.20064911	     -0.71982304	      6.26622111	      2.90890563	     -9.37218676	     -1.33942886	      6.78148748	    -10.39081613	     -0.18135395	      8.04793667	     -7.26482154	    -18.23454038	     -4.52870303	      0.98533031	     -7.65154008	     -2.38569570	    -11.82427038	    -25.17926738	     20.77967783	     89.95437384	      0.00000000	      0.00000000	     11.98392928	     11.43407382	     -2.91640840	     37.71482079	     89.95437384	      0.00000000	      0.00000000
      0.14000000	     -3.32393079	     -1.21525682	      4.61345568	     -0.83156468	      0.92784556	      1.42589811	     29.34753988	     -9.46033917	    -25.96922021	    -12.03273235	     -0.21001080	     -0.84776700	      6.00678977	      2.85495733	     -9.70001107	     -1.19557296	      6.66912842	    -10.97107797	     -0.19148143	      7.90944704	     -7.05395042	    -17.87196674	     -4.35437451	      0.87757851	     -7.69527508	     -2.85140450	    -11.82691369	    -25.11866296	     20.87578267	     89.95437384	      0.00000000	      0.00000000	     11.66654701	     11.48215347	     -2.82719564	     37.78430138	     89.95437384	      0.00000000	      0.00000000
      0.15000000	     -3.16445899	     -1.36744192	      4.81212908	     -0.82038700	      0.92646892	      1.42789789	     29.71161379	     -9.27370150	    -26.10347748	    -13.47332218	     -0.23515383	     -0.81589909	      4.90165549	      2.74842192	    -10.62344747	     -0.73805094	      6.46792076	    -10.90524384	     -0.19033241	      8.57164963	     -7.31411223	    -17.84697169	     -4.31449196	      1.09126603	     -7.78926778	     -2.93945719	    -11.89780663	    -25.33322818	     20.21537605	     89.95437384	      0.00000000	      0.00000000	     11.31440894	     11.41920178	     -2.46579669	     37.58284408	     89.95437384	      0.00000000	      0.00000000
      0.16000000	     -2.88747813	     -1.46117256	      5.06421200	     -0.80896453	      0.92538337	      1.42986610	     29.69454607	     -9.03303027	    -26.04921795	    -14.64816212	     -0.25565866	     -0.37532724	      3.38638673	      2.58951314	    -11.48669721	     -0.29271108	      6.22977250	    -11.26197237	     -0.19655850	      8.45062874	     -7.52652913	    -17.67324007	     -4.44245277	      1.26938610	     -7.89345061	     -3.11598523	    -11.90162809	    -25.87904590	     19.78071164	     89.95437384	      0.00000000	      0.00000000	     10.89312032	     11.29669880	     -1.90138650	     37.46971033	     89.95437384	      0.00000000	      0.00000000
